<svg width="133" height="55" viewBox="0 0 133 55" fill="none" xmlns="http://www.w3.org/2000/svg">
<path fill-rule="evenodd" clip-rule="evenodd" d="M6.12625 47.2964C6.20026 47.5272 9.02531 49.7217 10.0163 50.3182C15.0475 53.3466 19.7857 54.4736 25.1071 53.9077C26.5467 53.7546 28.2005 53.4064 31.9339 52.4706C35.9787 51.4568 38.8824 50.9131 41.725 50.6372C44.2432 50.3929 49.4557 50.4197 51.9652 50.6899C53.8542 50.8933 55.5311 51.1359 56.7447 51.3815C57.507 51.5356 57.4895 51.5345 57.4895 51.4336C57.4895 51.3334 55.505 50.8317 54.2109 50.6045C50.7778 50.0021 49.1648 49.833 46.0367 49.7474C44.0667 49.6936 39.9625 49.8859 39.1215 50.0714C38.923 50.1153 38.4171 50.1971 37.9972 50.2533C36.7558 50.4197 34.235 50.9281 32.0237 51.4581C29.1206 52.1539 28.0297 52.3795 26.2299 52.6563C24.8452 52.8692 24.3907 52.8984 22.4123 52.9008C20.0288 52.9038 19.3587 52.8333 17.2024 52.3527C14.9599 51.8529 12.3014 50.9057 10.8696 50.0964C10.6967 49.9987 10.0904 49.6623 9.52223 49.349C8.95407 49.0356 8.00515 48.4531 7.41355 48.0544C6.01208 47.11 6.07909 47.1494 6.12625 47.2964ZM38.7607 49.1462C35.5791 49.432 33.414 49.766 31.8012 50.2196C29.7125 50.807 28.7451 51.1378 28.7451 51.2644C28.7451 51.3125 28.8159 51.3239 28.9023 51.2898C29.2543 51.151 33.2085 50.2902 34.4491 50.0823C36.9305 49.6665 39.902 49.3543 41.3829 49.3538C42.4112 49.3535 42.6816 49.2288 41.8441 49.1412C41.2905 49.0832 39.4277 49.0863 38.7607 49.1462Z" fill="white"/>
<path fill-rule="evenodd" clip-rule="evenodd" d="M0.112283 37.0839C0.0505722 37.1111 0 37.206 0 37.2948C0 37.5098 0.111565 37.5857 0.853352 37.8756C2.48065 38.5115 4.03078 39.5663 4.95636 40.6675C5.51535 41.3324 6.03005 42.2843 6.46652 43.4602C6.99964 44.8966 7.8423 46.0068 9.14568 46.9897C10.191 47.7779 12.3943 48.8538 12.526 48.6403C12.5524 48.5976 12.3016 48.3861 11.9687 48.1703C11.2 47.6721 10.1825 46.6728 9.74716 45.9886C9.32417 45.3238 8.90477 44.1858 8.83443 43.512C8.73203 42.5311 9.24494 41.8462 10.285 41.5749C10.9609 41.3987 12.3443 41.3983 13.5189 41.5742C15.5024 41.8711 18.5762 42.2232 20.5253 42.3768C21.4146 42.4468 22.89 42.5674 23.804 42.6448C26.4354 42.8676 30.9961 43.1872 33.4604 43.3214C34.3496 43.3698 36.0878 43.4725 37.3229 43.5497C43.2648 43.9209 45.4765 44.051 47.3385 44.139C48.4501 44.1915 50.1473 44.2902 51.1101 44.3583C52.0729 44.4264 52.8779 44.4646 52.8992 44.4434C52.9895 44.3529 52.779 44.3047 51.5526 44.135C50.8405 44.0365 49.8739 43.8965 49.4046 43.8238C48.9352 43.7511 47.8438 43.5859 46.9792 43.4568C41.4415 42.6297 39.7801 42.3796 37.9966 42.104C36.0046 41.7963 31.8866 41.1862 30.7206 41.026C30.2019 40.9547 29.2722 40.818 28.6546 40.7223C28.0371 40.6266 26.9659 40.4651 26.2742 40.3634C22.7563 39.8461 21.3827 39.647 20.9745 39.5955C20.7275 39.5642 20.0201 39.4623 19.4025 39.3689C18.2949 39.2014 17.1388 39.0389 13.968 38.6054C11.3711 38.2504 9.61565 38.0152 8.89282 37.9255C8.52229 37.8797 7.57237 37.762 6.7819 37.6641C3.46793 37.2539 0.343496 36.9822 0.112283 37.0839ZM11.7471 43.1528C10.1492 43.3873 10.0074 44.2916 11.344 45.7225C11.64 46.0393 11.9018 46.2789 11.9258 46.2549C11.9498 46.2309 11.9037 46.0469 11.8234 45.8459C11.7431 45.6449 11.6774 45.3242 11.6774 45.133C11.6774 44.8433 11.7356 44.7329 12.0267 44.4696C12.3855 44.1449 12.4757 44.1129 13.474 43.9574C14.2727 43.8329 15.0436 43.8419 17.0801 43.9997C18.6623 44.1223 19.8647 44.261 23.7142 44.7648C24.4306 44.8586 25.4209 44.9794 25.9149 45.0332C26.409 45.087 27.2376 45.1881 27.7564 45.2579C28.2751 45.3277 28.9421 45.4071 29.2385 45.4343C29.5349 45.4615 30.5253 45.5641 31.4393 45.6622C33.0994 45.8405 35.9185 46.0522 38.7152 46.2088C40.6843 46.3191 50.5663 46.3172 52.0876 46.2062C52.7481 46.1581 53.6576 46.0916 54.1087 46.0583C55.8687 45.9286 55.1508 45.8551 52.0544 45.8478C47.0065 45.8358 39.4764 45.5212 36.0204 45.178C35.304 45.1068 34.152 45.0037 33.4604 44.9489C32.7687 44.8942 31.839 44.8101 31.3943 44.7623C30.9497 44.7144 29.8583 44.6146 28.969 44.5404C28.0798 44.4662 26.8267 44.3442 26.1844 44.2692C25.5422 44.1944 24.4508 44.0755 23.7591 44.0051C21.0321 43.7275 19.6503 43.583 18.1 43.4131C15.211 43.0966 12.8027 42.9979 11.7471 43.1528ZM55.8496 45.9035C55.9114 45.9286 56.0125 45.9286 56.0742 45.9035C56.136 45.8786 56.0854 45.8582 55.9619 45.8582C55.8384 45.8582 55.7879 45.8786 55.8496 45.9035ZM15.2799 46.0137C15.1461 46.1013 15.2417 46.1242 17.1569 46.4655C19.3516 46.8565 24.4186 47.5003 26.7683 47.6867C27.1388 47.7161 28.0685 47.7997 28.8343 47.8724C33.0947 48.2768 42.4727 48.4859 47.1589 48.2809C51.13 48.1072 52.8949 48.0039 54.1654 47.871C54.8323 47.8013 55.7216 47.7197 56.1415 47.6896C57.3379 47.6039 58.962 47.3688 59.0609 47.2669C59.1563 47.1687 57.3044 47.2205 55.1256 47.377C51.2002 47.6591 37.2332 47.7184 33.4154 47.4692C32.6497 47.4193 30.8913 47.3158 29.508 47.2395C25.5846 47.0228 16.5036 46.1982 15.5845 45.9752C15.4859 45.9512 15.3488 45.9685 15.2799 46.0137Z" fill="white"/>
<path fill-rule="evenodd" clip-rule="evenodd" d="M32.2438 2.32301C31.6207 3.11192 31.2015 3.76715 30.3088 5.34802C28.0546 9.33978 26.6637 12.5117 25.3899 16.5656C24.4311 19.6167 23.4494 24.3087 23.263 26.7305C23.2211 27.2748 23.1394 28.307 23.0815 29.0244C22.9426 30.7448 23.024 36.0545 23.2112 37.4802C23.2859 38.0491 23.3488 38.5653 23.351 38.6271C23.3562 38.7785 23.8217 38.7689 24.4328 38.6046C24.7045 38.5316 25.3917 38.4017 25.9598 38.3161C27.4016 38.0987 30.8929 38.0984 32.3375 38.3157C34.6498 38.6632 36.8469 39.3574 39.0196 40.4266C39.854 40.8373 40.5613 41.1487 40.5912 41.1187C40.6212 41.0886 40.2727 40.3452 39.8169 39.4667C39.361 38.5882 38.7406 37.3062 38.4382 36.6178C38.1359 35.9294 37.727 35.0019 37.5295 34.5566C36.9613 33.2746 35.8459 30.2578 35.4676 28.9794C34.5043 25.7246 34.3 24.9694 33.9223 23.2673C33.5478 21.5794 33.2027 19.6305 32.8375 17.1408C32.3821 14.0353 32.243 7.69108 32.547 3.89327C32.6336 2.81102 32.686 1.90715 32.6635 1.88457C32.6409 1.86199 32.4521 2.05927 32.2438 2.32301Z" fill="white"/>
<path fill-rule="evenodd" clip-rule="evenodd" d="M31.3485 0.185942C29.5833 0.815268 26.5374 2.27524 24.342 3.54451C22.2773 4.73812 21.0955 5.56759 17.5601 8.30394C16.7322 8.94478 14.7601 10.8322 14.0403 11.6728C12.1513 13.879 11.1078 15.1367 10.8543 15.5137C10.6985 15.7453 10.2594 16.3598 9.87866 16.8793C8.82625 18.3148 6.71838 21.9935 6.11592 23.446C6.00309 23.7181 5.74924 24.2439 5.55199 24.6145C5.23777 25.2044 4.32864 27.682 4.00023 28.8433C3.93726 29.0659 3.73875 29.7167 3.55918 30.2893C3.37953 30.862 3.14931 31.712 3.04744 32.1784C2.53094 34.5442 2.27359 35.916 2.3273 36.0177C2.36952 36.0974 2.55591 36.0076 2.96202 35.7116C3.59107 35.2532 5.40952 34.2543 6.20565 33.9296C7.97164 33.2097 10.2364 32.8888 12.2603 33.0719C15.8218 33.394 18.5036 34.7867 21.0613 37.6423C21.6158 38.2615 21.9789 38.6012 22.0137 38.5332C22.0446 38.4729 22.0293 37.5127 21.9796 36.3995C21.8866 34.3125 22.0064 29.6863 22.1882 28.3485C22.2353 28.0022 22.337 27.1521 22.414 26.4595C22.5624 25.1272 22.8693 23.27 23.224 21.5569C24.7592 14.1437 28.1699 6.0771 32.1214 0.513559C32.5132 -0.0381357 32.2683 -0.142034 31.3485 0.185942Z" fill="white"/>
<path fill-rule="evenodd" clip-rule="evenodd" d="M101.448 30.4816C101.399 30.7464 101.379 31.2198 101.405 31.5336L101.451 32.1042H102.444H103.437L103.572 31.6268C103.655 31.3339 103.657 30.944 103.578 30.6172L103.448 30.085L102.492 30.0425L101.537 30L101.448 30.4816ZM72.846 30.9897C71.4896 31.9535 70.2187 32.9366 70.0341 33.1647C69.9341 33.2884 69.8558 33.7776 69.8558 34.2776C69.8558 34.8745 69.7885 35.2264 69.6523 35.3408C69.4325 35.5251 69 36.6862 69 37.0918C69 37.2384 69.1756 37.4024 69.4279 37.4913L69.8558 37.6421V39.1058C69.8558 40.3295 69.8099 40.6347 69.5756 40.9674C69.4214 41.1864 69.2145 41.6704 69.116 42.0431C68.8943 42.8811 69.0562 43.0432 69.9985 42.927C70.6953 42.8411 71.171 42.5501 71.63 41.9289C71.9081 41.5526 71.928 41.2895 71.9954 37.106L72.0668 32.6811L72.78 32.6344C73.7425 32.5714 74.4673 32.8128 74.909 33.3439L75.2762 33.7849V38.1455C75.2762 43.2976 75.2441 43.169 76.4294 42.7778C76.8542 42.6376 77.2821 42.4586 77.3801 42.38C77.6417 42.1705 77.6263 34.7229 77.3619 33.5868C77.2563 33.1329 77.2038 32.7273 77.2453 32.6853C77.422 32.5065 79.3236 32.6211 79.775 32.8378C80.7595 33.3101 80.763 33.328 80.811 38.3497C80.8467 42.0722 80.8895 42.8781 81.0554 42.9424C81.375 43.0666 82.6813 42.5651 82.8452 42.2553C82.9422 42.0721 82.9792 40.4766 82.9509 37.688L82.9074 33.4023L82.4825 32.6265C81.9688 31.6888 81.0534 30.9493 80.0361 30.6502C79.1799 30.3985 79.1931 30.3942 77.7283 31.4083L76.8115 32.0429L76.3648 31.6705C75.8392 31.2325 74.6725 30.6537 74.0585 30.526C73.7053 30.4527 73.481 30.5386 72.846 30.9897ZM88.3991 33.3773C87.7103 33.7438 85.046 35.8036 84.95 36.0439C84.786 36.4554 84.8232 37.0367 85.0248 37.2057C85.1674 37.3256 85.3951 37.3064 85.9163 37.1308C86.8601 36.813 86.9504 36.7206 87.0006 36.0233L87.044 35.4215L87.9479 35.3783C89.0402 35.3261 89.286 35.4841 89.2265 36.2008C89.1876 36.668 89.1364 36.724 88.6795 36.7984C88.0708 36.8975 88.1296 36.8621 86.2214 38.2771C85.3768 38.9035 84.6201 39.5397 84.5401 39.691C84.3626 40.0263 84.584 40.9719 85.0012 41.6609C85.3648 42.2615 86.3535 42.8495 86.9995 42.8495C87.3237 42.8495 87.6981 42.7047 88.0611 42.4387C89.165 41.6303 89.2322 41.6169 89.7337 42.1077C90.338 42.6989 91.1733 43.0464 91.5284 42.8541C91.8266 42.6929 92.321 41.3685 92.201 41.0524C92.1593 40.9425 91.9768 40.8314 91.7955 40.8054C91.4667 40.7583 91.4657 40.7503 91.3945 37.9456C91.3185 34.9482 91.252 34.6463 90.5146 33.9501C90.1689 33.6237 89.2636 33.1852 88.9385 33.1868C88.838 33.1874 88.5952 33.2731 88.3991 33.3773ZM93.7165 33.3022C93.5159 33.4313 93.1062 34.5318 93.1062 34.9424C93.1062 35.1214 93.2584 35.2739 93.5341 35.3711L93.962 35.5219L93.9642 39.0054C93.9655 40.9214 94.0245 42.5818 94.0957 42.6955C94.2047 42.8697 94.3215 42.8733 94.8423 42.719C96.1754 42.3241 96.1014 42.5472 96.1038 38.9159C96.1051 37.1526 96.1597 35.6243 96.2253 35.5198C96.3 35.4005 96.5522 35.3467 96.9007 35.3755C97.4028 35.4171 97.4606 35.4635 97.4958 35.8542C97.5835 36.8243 97.65 36.9361 98.137 36.9328C98.3904 36.9311 98.8707 36.8044 99.2041 36.6514C99.8679 36.3466 99.9292 36.1488 99.6614 35.1736C99.4115 34.2638 98.7359 33.5977 97.7828 33.3214C97.4141 33.2144 97.291 33.268 96.7525 33.7698C96.4163 34.0834 96.078 34.3398 96.0008 34.3398C95.9236 34.3398 95.7383 34.2008 95.5888 34.031C95.3268 33.7332 94.3266 33.1933 94.0334 33.1913C93.9549 33.1908 93.8124 33.2408 93.7165 33.3022ZM101.212 33.3354C100.936 33.4982 100.461 34.8315 100.573 35.1273C100.614 35.2372 100.797 35.3483 100.978 35.3742C101.307 35.4214 101.308 35.4295 101.38 38.2341C101.456 41.2309 101.523 41.5348 102.259 42.2296C102.642 42.591 103.52 42.9937 103.925 42.9937C104.116 42.9937 104.29 42.776 104.508 42.2619C104.933 41.2645 104.867 40.9218 104.232 40.8303L103.733 40.7581L103.645 37.8735C103.597 36.2869 103.549 34.9099 103.538 34.8136C103.503 34.4964 102.605 33.5796 102.135 33.3808C101.594 33.1523 101.528 33.1492 101.212 33.3354ZM106.404 33.3662C106.324 33.4655 106.16 33.8832 106.04 34.2948C105.812 35.078 105.85 35.1938 106.407 35.3946C106.711 35.504 106.697 35.2961 106.66 39.195C106.63 42.2776 106.639 42.3969 106.919 42.5483C107.319 42.765 108.609 42.7485 108.753 42.525C108.816 42.4259 108.9 40.787 108.939 38.8831L109.011 35.4215H110.009H111.008L111.085 39.0995C111.128 41.1223 111.176 42.8021 111.192 42.8323C111.246 42.932 112.156 42.7364 112.692 42.5098L113.218 42.2873L113.235 40.2246C113.279 34.8937 113.216 34.5091 112.174 33.7461C111.393 33.1735 110.906 33.2074 109.866 33.9071C109.396 34.2238 108.956 34.4833 108.888 34.4836C108.821 34.4839 108.645 34.3274 108.496 34.136C108.211 33.7701 107.151 33.1859 106.772 33.1859C106.65 33.1859 106.484 33.2671 106.404 33.3662ZM116.939 34.6249C115.717 35.5464 115.195 36.0306 115.127 36.3048C115.074 36.5166 115.07 37.4745 115.118 38.4335C115.194 39.9591 115.255 40.2751 115.602 40.9595C116.038 41.8156 116.975 42.585 117.9 42.8446C118.796 43.0963 120.026 43.0334 120.336 42.72C120.758 42.2936 121.381 41.1438 121.28 40.9788C121.229 40.8946 120.631 40.8303 119.9 40.8303C118.446 40.8303 117.779 40.6031 117.516 40.0192C117.321 39.5868 117.41 39.3879 117.798 39.3879C117.955 39.3879 118.288 39.2806 118.539 39.1494C119.271 38.7666 121.754 36.8153 121.929 36.4851C122.278 35.8254 121.278 34.1708 120.191 33.6101C119.178 33.0871 118.838 33.1932 116.939 34.6249ZM119.404 35.6484C120.031 36.1467 119.918 36.6537 119.031 37.3195C117.956 38.1268 117.543 38.3756 117.443 38.2746C117.324 38.1545 117.331 35.5665 117.45 35.4456C117.502 35.3927 117.879 35.3494 118.287 35.3494C118.821 35.3494 119.133 35.4331 119.404 35.6484ZM89.1836 39.3278V40.7581L88.1656 40.8003C87.0099 40.8478 86.6874 40.665 86.6874 39.9615C86.6874 39.6138 86.8677 39.4052 87.7928 38.6821C88.4008 38.2068 88.9625 37.8358 89.0409 37.8578C89.1238 37.8808 89.1836 38.497 89.1836 39.3278Z" fill="white"/>
<path fill-rule="evenodd" clip-rule="evenodd" d="M76.4835 9.19317C75.3923 9.53203 75.4586 9.19061 75.4586 14.4651V19.2152L74.0823 19.1661C72.0519 19.0934 72.1575 19.3399 72.1575 14.676C72.1575 11.1521 72.138 10.8653 71.8603 10.298C71.5091 9.58071 70.8164 9.1127 70.1057 9.1127C69.6174 9.1127 69.5816 9.14762 69.2974 9.89857C69.1338 10.3307 69 10.7342 69 10.7952C69 10.8563 69.21 10.9976 69.4665 11.1093L69.9329 11.3122L69.8969 12.3765C69.8712 13.1346 69.7605 13.6652 69.5121 14.2212C69.3205 14.6504 69.1204 15.1745 69.0677 15.3856C68.9838 15.7228 69.022 15.7818 69.3808 15.8687C69.6055 15.9232 69.8369 16.0377 69.8949 16.1233C69.9529 16.2088 70.0012 16.796 70.0025 17.4283C70.0058 19.2037 70.4495 20.1286 71.6242 20.8092C72.8208 21.5025 73.6081 21.4303 74.8254 20.5156C75.0692 20.3324 75.3114 20.2247 75.3636 20.2763C75.4827 20.3941 75.4892 22.3495 75.3715 22.6528C75.2974 22.8435 74.9647 22.8772 73.1601 22.8772H71.0358L70.7371 23.7515C70.295 25.0457 70.2795 25.0379 73.2252 24.9817C75.5186 24.9378 75.7131 24.9127 76.2909 24.5855C76.6303 24.3933 77.0502 24.0102 77.2238 23.7341C77.5366 23.2371 77.5401 23.1612 77.5808 16.2995C77.611 11.2005 77.5779 9.31463 77.4556 9.1689C77.2637 8.94029 77.3007 8.9393 76.4835 9.19317ZM95.4704 9.07581C95.2746 9.21346 94.8344 10.3118 94.8344 10.6626C94.8344 10.8317 94.9923 10.9841 95.265 11.0781L95.6956 11.2265V15.9849V20.7433L96.028 20.8258C96.2108 20.8712 96.6791 20.8883 97.0685 20.8639L97.7767 20.8197L97.8484 17.343L97.9202 13.8664L98.8665 13.825C99.5192 13.7963 99.8614 13.8417 99.97 13.9712C100.069 14.0894 100.144 15.2158 100.172 17.0181C100.223 20.2773 100.265 20.4101 101.444 20.9939C102.365 21.4501 102.677 21.3216 102.957 20.3695C103.218 19.4807 103.165 19.2282 102.701 19.1634C102.37 19.117 102.369 19.1123 102.298 16.2788C102.253 14.5044 102.163 13.3343 102.059 13.1569C101.787 12.6953 101.113 12.1232 100.582 11.9024C99.9944 11.6584 99.7318 11.7349 98.7426 12.4375C98.3537 12.7138 97.9934 12.8982 97.942 12.8473C97.8905 12.7965 97.8484 12.2641 97.8484 11.6643C97.8484 10.7679 97.7909 10.4893 97.5251 10.0992C97.0438 9.39325 95.8586 8.80293 95.4704 9.07581ZM106.23 9.92652C105.603 10.4044 105.311 10.7366 105.204 11.0951C105.121 11.3707 104.885 11.9894 104.68 12.4701C104.287 13.3895 104.307 13.7955 104.745 13.7955C104.889 13.7955 105.06 13.8754 105.124 13.9729C105.188 14.0705 105.272 15.4007 105.312 16.9288C105.383 19.6781 105.388 19.7128 105.77 20.2082C106.286 20.8763 107.066 21.231 108.036 21.239L108.823 21.2454L109.157 20.4182C109.574 19.385 109.466 19.217 108.35 19.159L107.536 19.1168L107.497 16.4562L107.458 13.7955H108.377C109.423 13.7955 109.476 13.7549 109.831 12.6791C110.041 12.0414 110.05 11.8961 109.886 11.7859C109.582 11.5825 108.222 11.7291 107.922 11.9977C107.776 12.128 107.614 12.2346 107.561 12.2346C107.508 12.2346 107.465 11.5641 107.465 10.7446C107.465 9.64612 107.418 9.25517 107.285 9.25659C107.187 9.25773 106.712 9.55913 106.23 9.92652ZM83.0634 11.8548C82.5466 12.1216 80.4942 13.6168 79.9438 14.1277C79.6131 14.4346 79.4779 14.6868 79.4794 14.994C79.4833 15.7569 79.6185 15.8319 80.5206 15.5727C81.47 15.2998 81.5943 15.1749 81.6553 14.4322L81.7019 13.8664L82.6717 13.8244C83.602 13.7841 83.6474 13.7976 83.784 14.1529C84.029 14.7901 83.9611 15.0596 83.5319 15.1541C83.3147 15.2017 83.0208 15.2723 82.8785 15.3106C82.7363 15.3489 81.8483 15.9493 80.9051 16.6447C79.221 17.8867 79.1902 17.9193 79.1902 18.4683C79.1902 19.2193 79.4037 19.7321 79.9525 20.2996C80.9755 21.3576 81.7421 21.4365 82.9385 20.6068C83.3886 20.2946 83.8153 20.0392 83.8867 20.0392C83.958 20.0392 84.201 20.2296 84.4265 20.4624C84.9691 21.0224 85.9956 21.4199 86.2852 21.1822C86.5498 20.9651 86.9922 19.6676 86.8909 19.4063C86.849 19.2982 86.6653 19.1889 86.4829 19.1634C86.1522 19.117 86.151 19.109 86.0789 16.3497C86.0018 13.4013 85.9345 13.1023 85.194 12.4187C84.8463 12.0976 83.9353 11.6662 83.6082 11.6678C83.507 11.6684 83.2619 11.7525 83.0634 11.8548ZM91.9639 11.7722C91.8455 11.8178 90.9927 12.4192 90.0688 13.1085C88.1116 14.569 88.1436 14.5 88.2752 16.9676C88.3801 18.9318 88.784 19.8527 89.8514 20.5614C90.7667 21.169 92.0015 21.4469 92.5197 21.1616C92.9419 20.9292 93.8668 19.6534 93.787 19.4135C93.7583 19.3276 93.23 19.2269 92.5985 19.1872C90.6296 19.0633 90.5031 18.8607 90.5604 15.9202L90.6005 13.8664L91.8847 13.825C92.591 13.8023 93.2495 13.7176 93.3479 13.6367C93.6077 13.4236 93.9972 12.1775 93.8903 11.9019C93.8194 11.7196 93.6176 11.6695 92.9891 11.6782C92.5436 11.6843 92.0823 11.7267 91.9639 11.7722ZM83.8957 17.6623L83.8548 19.1168L82.8305 19.1583C81.6758 19.2048 81.3431 19.0247 81.3431 18.3528C81.3431 17.9178 81.7764 17.4489 82.8704 16.7005C83.9287 15.9765 83.9428 15.9897 83.8957 17.6623Z" fill="white"/>
</svg>
